<?xml version="1.0" encoding="utf-8"?>
<!-- Generator: Adobe Illustrator 20.1.0, SVG Export Plug-In . SVG Version: 6.00 Build 0)  -->
<svg version="1.1" id="Слой_1" xmlns="http://www.w3.org/2000/svg" xmlns:xlink="http://www.w3.org/1999/xlink" x="0px" y="0px"
	 viewBox="0 0 10 10" style="enable-background:new 0 0 10 10;" xml:space="preserve">
<style type="text/css">
	.st0{fill:#0D0E0F;}
</style>
<path class="st0" d="M4,8.8c-0.1,0-0.3-0.1-0.3-0.2L0.2,4.3C0,4.1,0.1,3.8,0.3,3.7c0.2-0.2,0.5-0.1,0.6,0.1l3.5,4.3
	c0.2,0.2,0.1,0.5-0.1,0.6C4.2,8.7,4.1,8.8,4,8.8z"/>
<path class="st0" d="M4,8.8c-0.1,0-0.2,0-0.3-0.1C3.6,8.5,3.5,8.2,3.7,8.1l5.4-6.7c0.2-0.2,0.4-0.2,0.6-0.1C9.9,1.5,10,1.8,9.8,1.9
	L4.4,8.6C4.3,8.7,4.2,8.8,4,8.8z"/>
</svg>
